<svg width="495" height="848" viewBox="0 0 495 848" fill="none" xmlns="http://www.w3.org/2000/svg">
<g clip-path="url(#clip0_137_196)">
<path d="M359.265 0.00195312L308.522 37.8544L284.873 33.5431L359.265 0.00195312Z" fill="black"/>
<path d="M326.387 76.3005L341.281 73.0176L326.387 96.2353V76.3005Z" fill="#EFA189"/>
<path d="M211.314 78.1984C211.314 44.3013 235.24 12.9355 269.307 12.9355C303.374 12.9355 331.776 27.4911 331.776 81.0462C331.776 134.601 307.057 139.585 272.991 139.585C238.924 139.585 211.314 112.096 211.314 78.1589V78.1984Z" fill="#EFA189"/>
<path d="M304.087 87.2173C303.533 87.2173 302.939 86.98 302.582 86.5054C301.869 85.6748 301.988 84.409 302.859 83.7366L315.892 72.9386L300.601 67.7967C299.572 67.4407 299.017 66.3332 299.373 65.3048C299.73 64.2764 300.839 63.7227 301.869 64.0787L320.526 70.3281C321.2 70.5654 321.715 71.1192 321.834 71.8311C321.952 72.5431 321.715 73.255 321.16 73.7297L305.355 86.8218C304.998 87.1382 304.523 87.2964 304.087 87.2964V87.2173Z" fill="black"/>
<path d="M316.128 110.671C316.128 110.671 315.732 110.671 315.534 110.592C307.611 108.14 300.838 101.258 300.521 100.941C299.768 100.15 299.768 98.924 300.521 98.133C301.313 97.3815 302.581 97.3815 303.333 98.133C303.413 98.2121 309.711 104.58 316.683 106.756C317.713 107.072 318.307 108.18 317.99 109.247C317.712 110.078 316.96 110.632 316.088 110.632L316.128 110.671Z" fill="black"/>
<path d="M288.241 48.8104C288.241 46.1603 294.459 44.0244 302.184 44.0244C309.908 44.0244 316.128 46.1603 316.128 48.8104C316.128 51.4604 309.908 53.5963 302.184 53.5963C294.459 53.5963 288.241 51.4604 288.241 48.8104Z" fill="black"/>
<path d="M313.553 27.1754C302.184 16.6542 285.587 9.73242 268.435 9.73242C234.368 9.73242 217.058 34.5323 206.719 66.8473C202.52 79.8999 215.196 108.932 215.552 111.701C222.96 105.016 231.872 94.9301 242.726 89.3531C253.58 83.7761 262.691 57.671 262.691 57.671C279.447 53.6365 308.998 35.0069 313.553 27.1754V27.1754Z" fill="black"/>
<path d="M258.533 73.2945C256.75 62.7338 247.798 55.5351 238.568 57.1568C229.338 58.818 223.278 68.7063 225.06 79.267C226.843 89.8277 235.795 97.0264 245.025 95.4048C254.255 93.7435 260.315 83.8552 258.533 73.2945V73.2945Z" fill="#EFA189"/>
<path d="M246.806 83.7371C246.172 83.7371 245.538 83.4207 245.182 82.8669L235.002 67.9158C234.407 67.0061 234.606 65.78 235.517 65.1867C236.428 64.5934 237.655 64.7911 238.289 65.7009L248.47 80.652C249.064 81.5617 248.866 82.7879 247.955 83.3812C247.598 83.6185 247.242 83.7371 246.846 83.7371H246.806Z" fill="black"/>
<path d="M235.358 84.1333C234.684 84.1333 234.011 83.7774 233.655 83.1841C233.1 82.2348 233.417 81.0482 234.328 80.4549L241.696 76.104C242.647 75.5503 243.875 75.8667 244.39 76.7764C244.944 77.7257 244.627 78.9123 243.716 79.5056L236.348 83.8565C236.031 84.0542 235.675 84.1333 235.358 84.1333Z" fill="black"/>
<path d="M232.19 16.5753C262.216 -2.48936 298.264 5.38174 311.256 23.062C311.256 23.062 284.914 30.2607 257.859 46.1216C242.054 55.3771 210.126 101.694 210.126 101.694C190.993 71.5939 202.204 35.6004 232.23 16.5358L232.19 16.5753Z" fill="#FFC849"/>
<path d="M478.856 111.661L342.668 104.541C338.192 104.304 334.706 100.625 334.706 96.1557V68.152C334.706 63.6825 338.232 60.0041 342.668 59.7668L478.856 52.6472C483.688 52.4098 487.729 56.2465 487.729 61.0325V103.236C487.729 108.061 483.688 111.898 478.856 111.621V111.661Z" fill="black"/>
<path d="M348.847 110.671C347.738 110.671 346.866 109.801 346.866 108.694V57.67C346.866 56.5626 347.738 55.6924 348.847 55.6924C349.956 55.6924 350.827 56.5626 350.827 57.67V108.694C350.827 109.801 349.956 110.671 348.847 110.671Z" fill="black"/>
<path d="M471.368 117.633C470.259 117.633 469.388 116.763 469.388 115.655V50.6691C469.388 49.5616 470.259 48.6914 471.368 48.6914C472.477 48.6914 473.349 49.5616 473.349 50.6691V115.655C473.349 116.763 472.477 117.633 471.368 117.633Z" fill="black"/>
<path d="M313.989 271.417C313.989 271.417 313.672 271.417 313.513 271.417C265.028 270.27 245.618 145.242 244.826 139.942C244.667 138.874 245.42 137.846 246.49 137.687C247.559 137.569 248.589 138.281 248.747 139.349C248.945 140.614 268.435 266.394 313.632 267.462C318.069 267.58 322.07 265.761 325.833 261.964C357.167 230.321 352.096 79.3859 352.057 77.8829C352.057 76.7754 352.889 75.8656 353.958 75.8261C354.988 75.747 355.978 76.6567 356.018 77.7247C356.256 84.0136 361.167 231.864 328.646 264.732C324.288 269.162 319.337 271.377 313.989 271.417V271.417Z" fill="#FD521B"/>
<path d="M376.932 161.34C376.932 161.34 361.325 136.342 359.74 113.599C359.027 103.434 359.225 95.9584 359.621 90.7769C360.057 85.4768 364.335 81.2841 369.643 80.9281C374.832 80.5722 379.546 83.9342 380.893 88.9179L400.303 161.538L376.892 161.34H376.932Z" fill="#EFA189"/>
<path d="M450.652 165.254C450.652 165.254 463.011 110.513 463.882 88.5607C464.239 79.7403 463.446 71.7901 462.377 65.422C460.872 56.5621 453.068 50.1149 444.036 50.1545L396.462 50.4313C389.252 50.4709 383.469 56.3643 383.548 63.563L384.182 111.897L394.758 168.34L450.652 165.254V165.254Z" fill="#EFA189"/>
<path d="M229.021 450.673C229.021 450.673 244.51 625.696 271.248 696.694C324.566 838.176 189.29 1085.5 189.29 1085.5L8.41992 1075.22C8.41992 1075.22 150.747 823.027 118.938 720.742C105.787 678.5 54.0926 469.026 54.0926 469.026L229.021 450.712V450.673Z" fill="#FFC849"/>
<path d="M297.749 433.229C297.749 433.229 388.62 611.258 413.021 683.086C462.893 829.829 314.703 1075.22 314.703 1075.22L173.247 1049.9C173.247 1049.9 281.587 786.36 249.778 684.115C236.627 641.872 118.978 447.745 118.978 447.745L297.749 433.268V433.229Z" fill="#FFC849"/>
<path d="M235.397 1078.74C235.041 1078.74 234.684 1078.66 234.367 1078.46C233.416 1077.91 233.139 1076.68 233.734 1075.73C233.971 1075.34 258.808 1034.87 284.715 978.234C308.601 926.023 338.31 848.934 344.212 778.292C350.114 707.808 322.069 625.577 297.51 569.016C270.85 507.629 242.409 462.38 242.131 461.945C241.537 461.035 241.814 459.809 242.765 459.216C243.676 458.623 244.904 458.9 245.498 459.849C245.776 460.284 274.376 505.77 301.154 567.394C325.911 624.39 354.155 707.294 348.173 778.609C342.232 849.804 312.324 927.368 288.319 979.895C262.333 1036.77 237.378 1077.35 237.14 1077.75C236.784 1078.34 236.11 1078.7 235.437 1078.7L235.397 1078.74Z" fill="black"/>
<path d="M173.247 1051.88C173.009 1051.88 172.732 1051.84 172.494 1051.72C171.464 1051.29 170.988 1050.14 171.424 1049.15C172.494 1046.5 279.13 785.095 247.876 684.709C247.559 683.68 248.153 682.573 249.183 682.217C250.253 681.901 251.322 682.494 251.679 683.522C264.989 726.319 256.115 801.154 225.376 905.93C202.52 983.811 175.386 1050.02 175.108 1050.66C174.791 1051.41 174.039 1051.88 173.286 1051.88H173.247Z" fill="black"/>
<path d="M123.65 164.662C123.65 164.662 54.0908 275.886 54.0908 468.985C54.0908 596.03 54.6058 797.237 54.6058 797.237L296.677 813.652L276.554 402.773L260.669 181.354L123.65 164.662V164.662Z" fill="#5774CD"/>
<path d="M302.423 187.604C302.423 187.604 328.606 159.916 287.805 125.189C268.237 108.537 153.044 51.4217 118.185 129.025C82.6531 208.171 210.482 200.933 210.482 200.933L302.423 187.604Z" fill="#5774CD"/>
<path d="M260.67 813.217C259.601 813.217 258.729 812.387 258.69 811.319L244.707 438.727C244.707 437.62 245.539 436.71 246.608 436.67C247.678 436.631 248.628 437.501 248.668 438.569L262.651 811.16C262.651 812.268 261.819 813.178 260.75 813.217H260.67V813.217Z" fill="black"/>
<path d="M280.991 688.348C280.991 688.348 280.595 688.347 280.397 688.268L266.255 683.759C265.225 683.443 264.631 682.296 264.948 681.267C265.265 680.239 266.414 679.646 267.444 679.962L281.585 684.471C282.615 684.788 283.209 685.935 282.892 686.963C282.615 687.794 281.862 688.348 280.991 688.348V688.348Z" fill="black"/>
<path d="M278.217 587.328C278.217 587.328 277.821 587.328 277.623 587.249L263.481 582.74C262.451 582.424 261.857 581.277 262.213 580.248C262.53 579.22 263.639 578.627 264.709 578.983L278.85 583.492C279.88 583.808 280.475 584.955 280.118 585.984C279.841 586.814 279.088 587.368 278.217 587.368V587.328Z" fill="black"/>
<path d="M275.405 486.35C275.405 486.35 275.01 486.35 274.812 486.271L260.67 481.762C259.64 481.445 259.046 480.298 259.402 479.27C259.759 478.242 260.828 477.648 261.898 478.004L276.039 482.513C277.069 482.83 277.664 483.977 277.307 485.005C277.03 485.836 276.277 486.389 275.405 486.389V486.35Z" fill="black"/>
<path d="M260.67 155.17C260.67 155.17 211.313 125.821 163.66 206.154C129.157 264.337 156.53 292.261 156.53 292.261C156.53 292.261 169.998 219.286 193.092 193.378C212.859 171.189 260.71 155.17 260.71 155.17H260.67Z" fill="#FFB6C8"/>
<path d="M245.024 406.411L136.486 450.671L133.871 470.843L264.751 440.15L245.024 406.411Z" fill="#FFB6C8"/>
<path d="M87.7216 167.82L120.479 171.063C152.329 174.217 175.627 202.598 172.472 234.401L151.222 448.601C149.586 465.094 134.852 477.188 118.296 475.549L29.9582 466.803C13.4416 465.167 1.32742 450.454 2.96738 433.922L24.2167 219.722C27.3716 187.918 55.7921 164.658 87.6427 167.812L87.7216 167.82Z" fill="#FFB6C8"/>
<path d="M155.3 175.066C130.067 179.259 109.706 199.787 107.092 226.446L88.5933 412.9C85.8205 441.022 103.685 466.416 129.869 474.129C141.238 470.767 150.032 460.799 151.3 448.3L175.305 206.393C176.691 192.312 168.135 179.575 155.3 175.106V175.066Z" fill="#FD521B"/>
<path d="M364.057 156.396L458.058 164.109C458.058 164.109 501.394 366.899 466.258 460.561C431.121 554.223 316.761 521.71 265.938 447.034C215.155 372.357 171.938 252.471 196.299 191.045C218.759 134.365 284.754 147.418 309.353 181.987C333.952 216.557 351.461 262.043 351.461 262.043L364.018 156.436L364.057 156.396Z" fill="#5774CD"/>
<path d="M390.678 363.773C389.886 363.773 389.133 363.298 388.856 362.547L347.025 257.691C346.629 256.663 347.105 255.516 348.134 255.12C349.125 254.725 350.313 255.199 350.709 256.228L392.54 361.083C392.936 362.112 392.46 363.259 391.431 363.654C391.193 363.733 390.955 363.813 390.718 363.813L390.678 363.773Z" fill="black"/>
<path d="M278.931 465.583C278.297 465.583 277.664 465.266 277.267 464.673C276.713 463.803 219.79 375.916 196.617 305.273C196.26 304.245 196.854 303.098 197.884 302.782C198.914 302.426 200.023 303.019 200.38 304.047C223.394 374.175 280 461.667 280.555 462.537C281.149 463.447 280.872 464.673 279.961 465.266C279.644 465.464 279.248 465.583 278.891 465.583H278.931Z" fill="black"/>
<path d="M185.091 206.669C184.774 206.669 184.457 206.59 184.14 206.431C183.19 205.917 182.833 204.691 183.348 203.742C184.457 201.725 210.483 154.617 246.649 150.266C289.985 145.084 310.9 180.564 311.098 180.959C311.652 181.908 311.296 183.095 310.345 183.649C309.395 184.203 308.206 183.847 307.651 182.897C307.453 182.541 287.806 149.277 247.084 154.182C212.978 158.295 187.071 205.126 186.794 205.601C186.437 206.273 185.764 206.629 185.051 206.629L185.091 206.669Z" fill="black"/>
<path d="M420.585 352.5C420.348 352.5 420.11 352.461 419.873 352.382L379.349 336.995C378.319 336.6 377.804 335.453 378.2 334.464C378.597 333.436 379.745 332.921 380.775 333.317L421.299 348.703C422.329 349.099 422.843 350.246 422.447 351.235C422.13 352.026 421.378 352.5 420.585 352.5Z" fill="black"/>
<path d="M493.392 53.123H482.063V111.187H493.392V53.123Z" fill="white"/>
<path d="M493.354 113.164H482.025C480.916 113.164 480.044 112.294 480.044 111.186V53.1222C480.044 52.0147 480.916 51.1445 482.025 51.1445H493.354C494.463 51.1445 495.335 52.0147 495.335 53.1222V111.186C495.335 112.294 494.463 113.164 493.354 113.164ZM484.006 109.209H491.374V55.0999H484.006V109.209Z" fill="black"/>
<path d="M103.488 264.771C103.488 264.771 103.33 264.771 103.251 264.771L21.2135 255.595C20.144 255.476 19.3515 254.487 19.4703 253.419C19.5891 252.351 20.54 251.56 21.6492 251.679L103.686 260.855C104.756 260.974 105.548 261.963 105.429 263.031C105.311 264.059 104.439 264.771 103.449 264.771H103.488Z" fill="white"/>
<path d="M32.2655 300.171C31.9486 300.171 31.6318 300.171 31.3149 300.132C26.9575 299.617 23.8678 295.702 24.3827 291.351L31.7114 229.094C32.2264 224.743 36.1479 221.658 40.5052 222.172C44.8626 222.686 47.9524 226.602 47.4374 230.953L40.1092 293.21C39.6338 297.244 36.2268 300.211 32.2655 300.211V300.171Z" fill="#FD521B"/>
<path d="M71.5214 306.184C71.2045 306.184 70.8876 306.184 70.5707 306.144C66.2134 305.63 63.1236 301.714 63.6386 297.364L70.9668 235.107C71.4817 230.756 75.4037 227.671 79.7611 228.185C84.1184 228.699 87.2082 232.615 86.6932 236.966L79.3646 299.223C78.8892 303.257 75.4826 306.223 71.5214 306.223V306.184Z" fill="#FD521B"/>
<path d="M404.663 91.2903C403.593 91.2903 402.722 90.4596 402.682 89.3917L400.781 50.7482C400.741 49.6407 401.573 48.731 402.642 48.6914C403.672 48.6914 404.663 49.4825 404.702 50.59L406.604 89.2335C406.643 90.341 405.811 91.2507 404.742 91.2903H404.663V91.2903Z" fill="black"/>
<path d="M425.655 91.2903C424.585 91.2903 423.714 90.4596 423.674 89.3917L421.773 50.7482C421.733 49.6407 422.565 48.731 423.635 48.6914C424.664 48.6914 425.655 49.4825 425.694 50.59L427.596 89.2335C427.635 90.341 426.804 91.2507 425.734 91.2903H425.655V91.2903Z" fill="black"/>
<path d="M446.928 90.1045C445.898 90.1045 444.987 89.2739 444.948 88.2455L443.046 50.7886C443.007 49.6811 443.838 48.7714 444.908 48.7318C446.057 48.6923 446.928 49.5229 446.968 50.5908L448.869 88.0478C448.909 89.1553 448.077 90.065 447.008 90.1045C447.008 90.1045 446.928 90.1045 446.889 90.1045H446.928Z" fill="black"/>
<path d="M257.818 46.1607C257.818 46.1607 339.815 -0.353946 359.265 0.00203287C359.265 0.00203287 320.484 27.0565 302.184 33.8992C294.023 36.9448 257.818 46.1607 257.818 46.1607V46.1607Z" fill="#FFC849"/>
</g>
<defs>
<clipPath id="clip0_137_196">
<rect width="495" height="848" fill="white"/>
</clipPath>
</defs>
</svg>
